#!OML:ASF F:\VICON\USERDATA\INSTALL\rory3\rory3.ASF
:FULLY-SPECIFIED
:DEGREES
538
root -1.70378 16.2447 20.3533 -141.47 -36.4955 -194.556
lowerback -7.66617 -4.3908 0.933967
upperback -9.2006 -6.59741 1.66334
thorax -5.22549 -3.63394 1.04297
lowerneck -9.95961 -5.35941 -4.21926
upperneck 25.5397 -9.54322 4.50713
head 10.1877 -4.84012 1.07135
rclavicle 1.23843e-013 4.77083e-015
rhumerus 46.7622 -31.5506 -24.9178
rradius 41.4519
rwrist -49.4069
rhand -11.405 9.55617
rfingers 7.12502
rthumb 14.6303 -19.9077
lclavicle 1.23843e-013 4.77083e-015
lhumerus 62.6547 28.3126 29.7401
lradius 31.1881
lwrist -28.9327
lhand 5.22244 21.4327
lfingers 7.12502
lthumb 30.5821 48.913
rfemur 108.859 -174.621 -189.275
rtibia 43.4799
rfoot -54.6478 -20.6425
rtoes 58.0515
lfemur -26.5037 -1.97664 -34.8438
ltibia 30.2532
lfoot -30.5424 13.7564
ltoes -23.2799
539
root -1.70986 16.2767 20.4658 -142.348 -35.8612 -194.042
lowerback -7.32971 -4.2364 0.656175
upperback -9.05675 -6.35332 1.71046
thorax -5.22333 -3.48196 1.27062
lowerneck -9.40495 -5.39083 -4.8401
upperneck 25.474 -9.64743 4.94577
head 10.1182 -4.92657 1.3313
rclavicle 4.73108e-014 3.18055e-015
rhumerus 47.5032 -30.9254 -24.5065
rradius 41.2242
rwrist -47.786
rhand -10.5269 9.41054
rfingers 7.12502
rthumb 15.4762 -19.99
lclavicle 4.73108e-014 3.18055e-015
lhumerus 63.8805 28.2638 31.065
lradius 32.0274
lwrist -28.4132
lhand 5.32276 20.8341
lfingers 7.12502
lthumb 30.6778 48.2964
rfemur 109.366 -175.07 -189.592
rtibia 43.2838
rfoot -54.6467 -14.8779
rtoes 59.9557
lfemur -26.0319 -1.57831 -35.1146
ltibia 29.7878
lfoot -30.5438 14.4008
ltoes -23.7054
540
root -1.72031 16.3163 20.5798 -143.36 -35.5252 -193.205
lowerback -7.04677 -4.10099 0.917364
upperback -8.94114 -6.15902 1.77782
thorax -5.27788 -3.38821 1.22108
lowerneck -9.09292 -5.28491 -4.90391
upperneck 25.6709 -9.57668 4.96273
head 10.1291 -4.92318 1.36316
rclavicle 7.55382e-015 1.27222e-014
rhumerus 48.2536 -30.3523 -24.1964
rradius 41.0441
rwrist -46.2468
rhand -9.36755 8.98564
rfingers 7.12502
rthumb 16.5926 -20.325
lclavicle 7.55382e-015 1.27222e-014
lhumerus 64.8059 27.9401 31.613
lradius 32.8807
lwrist -27.3433
lhand 5.44193 20.656
lfingers 7.12502
lthumb 30.7914 48.097
rfemur 109.729 -175.515 -189.439
rtibia 43.1546
rfoot -54.2297 -11.978
rtoes 60.5496
lfemur -25.6338 -1.63154 -34.9043
ltibia 29.3776
lfoot -30.7102 15.5018
ltoes -24.3013
541
root -1.72717 16.3559 20.689 -144.309 -35.1701 -192.252
lowerback -6.98824 -3.79677 1.08977
upperback -8.8987 -5.75906 1.74273
thorax -5.28831 -3.19846 1.10281
lowerneck -8.12642 -5.33685 -4.39409
upperneck 25.5223 -9.79556 4.78097
head 9.86566 -5.04562 1.22391
rclavicle 1.5704e-014 -2.70347e-014
rhumerus 48.3391 -29.7742 -23.4099
rradius 40.8164
rwrist -44.3441
rhand -8.47975 9.04508
rfingers 7.12502
rthumb 17.4472 -20.1919
lclavicle 1.5704e-014 -2.70347e-014
lhumerus 65.8671 26.9844 31.7598
lradius 33.6839
lwrist -25.7899
lhand 5.22647 21.1536
lfingers 7.12502
lthumb 30.586 48.6332
rfemur 109.894 -176.072 -189.124
rtibia 43.0921
rfoot -54.0647 -9.14453
rtoes 60.9876
lfemur -25.4362 -1.6626 -34.5711
ltibia 29.0535
lfoot -30.9668 16.3648
ltoes -23.8918
542
root -1.73957 16.4015 20.7952 -145.187 -34.9044 -191.278
lowerback -6.87839 -3.73246 1.42272
upperback -8.79886 -5.66509 1.99301
thorax -5.24905 -3.15762 1.18343
lowerneck -8.05793 -5.27668 -4.58761
upperneck 25.6378 -9.72496 4.81483
head 9.90182 -5.03698 1.27566
rclavicle 3.29983e-014 -7.95139e-015
rhumerus 49.5131 -29.1608 -23.2305
rradius 40.48
rwrist -41.9887
rhand -7.46466 9.06106
rfingers 7.12502
rthumb 18.4239 -20.0865
lclavicle 3.29983e-014 -7.95139e-015
lhumerus 66.1725 26.6374 31.3162
lradius 34.4429
lwrist -24.0936
lhand 4.8035 21.5592
lfingers 7.12502
lthumb 30.1825 49.1132
rfemur 110.04 -176.663 -188.674
rtibia 43.04
rfoot -54.0009 -6.19556
rtoes 61.7661
lfemur -25.3529 -1.9941 -34.1107
ltibia 28.8845
lfoot -31.3905 17.0953
ltoes -22.749
543
root -1.75252 16.44 20.9022 -146.02 -34.5271 -190.459
lowerback -6.85763 -3.66761 1.61236
upperback -8.57476 -5.55845 2.17788
thorax -5.02017 -3.09851 1.25828
lowerneck -7.99836 -5.23978 -4.89335
upperneck 25.6773 -9.71344 5.07053
head 9.93348 -5.04066 1.41649
rclavicle -1.86858e-014 1.59028e-014
rhumerus 50.9243 -28.9308 -23.3917
rradius 40.1536
rwrist -39.3098
rhand -5.95302 8.39176
rfingers 7.12502
rthumb 19.8775 -20.6117
lclavicle -1.86858e-014 1.59028e-014
lhumerus 66.8627 26.507 31.235
lradius 35.0333
lwrist -22.7864
lhand 4.72587 21.8061
lfingers 7.12502
lthumb 30.1085 49.3737
rfemur 110.075 -177.28 -188.323
rtibia 42.986
rfoot -54.1989 -4.28069
rtoes 62.1405
lfemur -25.244 -2.64826 -33.7629
ltibia 28.8319
lfoot -32.1924 17.762
ltoes -20.9045
544
root -1.76516 16.4788 21.0065 -146.885 -34.2751 -189.223
lowerback -6.96127 -3.60627 2.16055
upperback -8.39186 -5.48308 2.4979
thorax -4.78738 -3.07644 1.26856
lowerneck -8.23936 -5.15555 -5.2741
upperneck 25.8765 -9.63571 5.38593
head 10.0836 -5.00499 1.58654
rclavicle 1.82882e-014 2.38542e-014
rhumerus 52.4907 -28.6347 -23.703
rradius 39.8377
rwrist -36.9011
rhand -4.39122 7.91097
rfingers 7.12502
rthumb 21.3782 -20.9297
lclavicle 1.82882e-014 2.38542e-014
lhumerus 67.5356 26.5586 31.148
lradius 35.4445
lwrist -21.8307
lhand 4.75252 21.6313
lfingers 7.12502
lthumb 30.1339 49.1942
rfemur 109.928 -177.908 -187.58
rtibia 42.8554
rfoot -54.7037 -3.11567
rtoes 62.0978
lfemur -25.5045 -3.1762 -33.0177
ltibia 28.9404
lfoot -32.693 18.5456
ltoes -19.4228
545
root -1.77279 16.5122 21.1088 -147.58 -34.0471 -188.212
lowerback -7.1394 -3.63471 2.36547
upperback -8.15576 -5.51782 2.88357
thorax -4.41811 -3.08669 1.52076
lowerneck -8.51908 -5.00887 -5.36456
upperneck 25.9122 -9.39555 5.4428
head 10.1424 -4.88486 1.64161
rclavicle -2.36554e-014 -2.8625e-014
rhumerus 54.02 -28.2819 -23.6616
rradius 39.4793
rwrist -34.9346
rhand -3.43735 8.07934
rfingers 7.12502
rthumb 22.2942 -20.6546
lclavicle -2.36554e-014 -2.8625e-014
lhumerus 67.9311 26.6831 30.5112
lradius 35.8133
lwrist -20.6026
lhand 5.25178 21.038
lfingers 7.12502
lthumb 30.6101 48.5131
rfemur 109.837 -178.422 -186.947
rtibia 42.714
rfoot -55.3474 -1.46731
rtoes 62.4663
lfemur -25.8489 -3.62124 -32.4221
ltibia 29.1529
lfoot -33.044 19.1272
ltoes -17.8418
546
root -1.77621 16.5437 21.2087 -148.189 -33.9023 -187.308
lowerback -7.2446 -3.64012 2.55841
upperback -8.06918 -5.5368 3.17245
thorax -4.25758 -3.09922 1.69722
lowerneck -8.13594 -4.89305 -5.30801
upperneck 25.6179 -9.2493 5.52296
head 9.95317 -4.81737 1.69358
rclavicle 9.38264e-014 2.70347e-014
rhumerus 55.0089 -27.7661 -23.125
rradius 39.3614
rwrist -33.7108
rhand -2.53092 7.85993
rfingers 7.12502
rthumb 23.1641 -20.7673
lclavicle 9.38264e-014 2.70347e-014
lhumerus 68.1089 26.3837 29.3497
lradius 36.388
lwrist -18.7396
lhand 5.47533 21.3628
lfingers 7.12502
lthumb 30.8232 48.7978
rfemur 109.819 -178.849 -186.314
rtibia 42.5478
rfoot -56.1135 0.0936746
rtoes 62.901
lfemur -26.2452 -4.24315 -31.8131
ltibia 29.4496
lfoot -33.443 19.8156
ltoes -16.5673
